<svg xmlns="http://www.w3.org/2000/svg" viewBox="0 0 244.36 35.84"><defs><style>.cls-1{fill:#ff1744;}.cls-2{fill:none;}</style></defs><title>_line</title><g id="Слой_2" data-name="Слой 2"><g id="Слой_1-2" data-name="Слой 1"><polygon class="cls-1" points="244.36 17.47 244.36 35.84 226.89 18.36 209.41 35.84 192.01 18.43 174.6 35.84 157.13 18.36 139.65 35.84 122.18 18.36 104.71 35.84 87.24 18.36 69.76 35.84 52.36 18.43 34.95 35.84 17.48 18.36 0 35.84 0 17.47 8.3 9.18 17.48 0.01 26.65 9.18 34.95 17.47 43.17 9.25 52.36 0.07 69.76 17.47 78.06 9.18 87.24 0.01 96.41 9.18 104.71 17.47 122.18 0 139.65 17.47 147.95 9.18 157.13 0.01 166.3 9.18 174.6 17.47 182.82 9.25 192.01 0.07 201.19 9.25 209.41 17.47 217.71 9.18 226.89 0.01 236.06 9.18 244.36 17.47"/><line class="cls-2" y1="35.84" y2="17.47"/></g></g></svg>